<mxfile host="app.diagrams.net" modified="2022-07-01T08:17:23.746Z" agent="5.0 (Macintosh; Intel Mac OS X 10_15_7) AppleWebKit/537.36 (KHTML, like Gecko) Chrome/103.0.0.0 Safari/537.36" etag="mtIp5nWm8Xeo_EIFRKNu" version="20.0.4" type="github">
  <diagram id="PWW8Ae4SmuhzxQuyc2Wb" name="前端规划图">
    <mxGraphModel dx="1018" dy="634" grid="1" gridSize="10" guides="1" tooltips="1" connect="1" arrows="1" fold="1" page="1" pageScale="1" pageWidth="827" pageHeight="1169" math="0" shadow="0">
      <root>
        <mxCell id="0" />
        <mxCell id="1" parent="0" />
        <mxCell id="GN1xF4RMGACR0_WX6Sp8-1" value="" style="ellipse;whiteSpace=wrap;html=1;aspect=fixed;" parent="1" vertex="1">
          <mxGeometry x="590" y="10" width="80" height="80" as="geometry" />
        </mxCell>
        <mxCell id="GN1xF4RMGACR0_WX6Sp8-4" value="埋点系统" style="rounded=0;whiteSpace=wrap;html=1;" parent="1" vertex="1">
          <mxGeometry x="120" y="780" width="1260" height="60" as="geometry" />
        </mxCell>
        <mxCell id="GN1xF4RMGACR0_WX6Sp8-6" value="流程图" style="rounded=0;whiteSpace=wrap;html=1;" parent="1" vertex="1">
          <mxGeometry x="520" y="640" width="120" height="60" as="geometry" />
        </mxCell>
        <mxCell id="GN1xF4RMGACR0_WX6Sp8-7" value="拓扑图" style="rounded=0;whiteSpace=wrap;html=1;" parent="1" vertex="1">
          <mxGeometry x="520" y="510" width="120" height="60" as="geometry" />
        </mxCell>
        <mxCell id="GN1xF4RMGACR0_WX6Sp8-12" value="" style="group" parent="1" vertex="1" connectable="0">
          <mxGeometry x="520" y="335" width="290" height="160" as="geometry" />
        </mxCell>
        <mxCell id="GN1xF4RMGACR0_WX6Sp8-8" value="数字孪生" style="rounded=0;whiteSpace=wrap;html=1;" parent="GN1xF4RMGACR0_WX6Sp8-12" vertex="1">
          <mxGeometry y="50" width="120" height="60" as="geometry" />
        </mxCell>
        <mxCell id="GN1xF4RMGACR0_WX6Sp8-9" value="" style="strokeWidth=2;html=1;shape=mxgraph.flowchart.annotation_2;align=left;labelPosition=right;pointerEvents=1;" parent="GN1xF4RMGACR0_WX6Sp8-12" vertex="1">
          <mxGeometry x="120" y="30" width="50" height="100" as="geometry" />
        </mxCell>
        <mxCell id="GN1xF4RMGACR0_WX6Sp8-10" value="2D数字孪生" style="rounded=0;whiteSpace=wrap;html=1;" parent="GN1xF4RMGACR0_WX6Sp8-12" vertex="1">
          <mxGeometry x="170" width="120" height="60" as="geometry" />
        </mxCell>
        <mxCell id="GN1xF4RMGACR0_WX6Sp8-11" value="3D数字孪生" style="rounded=0;whiteSpace=wrap;html=1;" parent="GN1xF4RMGACR0_WX6Sp8-12" vertex="1">
          <mxGeometry x="170" y="100" width="120" height="60" as="geometry" />
        </mxCell>
        <mxCell id="GN1xF4RMGACR0_WX6Sp8-16" value="基于umi4的模版项目" style="rounded=0;whiteSpace=wrap;html=1;" parent="1" vertex="1">
          <mxGeometry x="135" y="540" width="120" height="60" as="geometry" />
        </mxCell>
        <mxCell id="GN1xF4RMGACR0_WX6Sp8-18" value="构建web端的bici-cli工具&lt;br&gt;1、普通项目工程&lt;br&gt;2、基于微前端的基座项目&lt;br&gt;3、基于微前端的子项目" style="rounded=0;whiteSpace=wrap;html=1;align=left;" parent="1" vertex="1">
          <mxGeometry x="120" y="660" width="150" height="60" as="geometry" />
        </mxCell>
        <mxCell id="GN1xF4RMGACR0_WX6Sp8-24" value="" style="group" parent="1" vertex="1" connectable="0">
          <mxGeometry x="920" y="342.5" width="350" height="95" as="geometry" />
        </mxCell>
        <mxCell id="GN1xF4RMGACR0_WX6Sp8-17" value="RN模版项目" style="rounded=0;whiteSpace=wrap;html=1;" parent="GN1xF4RMGACR0_WX6Sp8-24" vertex="1">
          <mxGeometry y="17.5" width="120" height="60" as="geometry" />
        </mxCell>
        <mxCell id="GN1xF4RMGACR0_WX6Sp8-22" value="1、日历组件&lt;br&gt;2、时间选择组件&lt;br&gt;3、拍照组件&lt;br&gt;4、二维码扫码组件&lt;br&gt;5、驾驶舱看板预览组件&lt;br&gt;6、Modal弹窗（侧滑和向上）" style="rounded=0;whiteSpace=wrap;html=1;align=left;" parent="GN1xF4RMGACR0_WX6Sp8-24" vertex="1">
          <mxGeometry x="160" width="190" height="95" as="geometry" />
        </mxCell>
        <mxCell id="GN1xF4RMGACR0_WX6Sp8-23" style="edgeStyle=orthogonalEdgeStyle;rounded=0;orthogonalLoop=1;jettySize=auto;html=1;entryX=0;entryY=0.5;entryDx=0;entryDy=0;" parent="GN1xF4RMGACR0_WX6Sp8-24" source="GN1xF4RMGACR0_WX6Sp8-17" target="GN1xF4RMGACR0_WX6Sp8-22" edge="1">
          <mxGeometry relative="1" as="geometry" />
        </mxCell>
        <mxCell id="GN1xF4RMGACR0_WX6Sp8-25" value="" style="group" parent="1" vertex="1" connectable="0">
          <mxGeometry x="50" y="310" width="290" height="160" as="geometry" />
        </mxCell>
        <mxCell id="GN1xF4RMGACR0_WX6Sp8-5" value="@bicitech-design/pro-components的能力" style="rounded=0;whiteSpace=wrap;html=1;" parent="GN1xF4RMGACR0_WX6Sp8-25" vertex="1">
          <mxGeometry x="170" width="120" height="60" as="geometry" />
        </mxCell>
        <mxCell id="GN1xF4RMGACR0_WX6Sp8-13" value="组件库" style="rounded=0;whiteSpace=wrap;html=1;" parent="GN1xF4RMGACR0_WX6Sp8-25" vertex="1">
          <mxGeometry y="50" width="120" height="60" as="geometry" />
        </mxCell>
        <mxCell id="GN1xF4RMGACR0_WX6Sp8-14" value="" style="strokeWidth=2;html=1;shape=mxgraph.flowchart.annotation_2;align=left;labelPosition=right;pointerEvents=1;" parent="GN1xF4RMGACR0_WX6Sp8-25" vertex="1">
          <mxGeometry x="120" y="30" width="50" height="100" as="geometry" />
        </mxCell>
        <mxCell id="GN1xF4RMGACR0_WX6Sp8-15" value="@bici-wui自有组件库&lt;br&gt;1、基础组件&lt;br&gt;2、业务组件&lt;br&gt;3、常用工具类" style="rounded=0;whiteSpace=wrap;html=1;align=left;" parent="GN1xF4RMGACR0_WX6Sp8-25" vertex="1">
          <mxGeometry x="170" y="100" width="120" height="60" as="geometry" />
        </mxCell>
      </root>
    </mxGraphModel>
  </diagram>
</mxfile>
